<?xml version="1.0" encoding="UTF-8"?>
<svg width="50px" height="50px" viewBox="0 0 50 50" version="1.1" xmlns="http://www.w3.org/2000/svg" xmlns:xlink="http://www.w3.org/1999/xlink">
    <!-- Generator: Sketch 63.1 (92452) - https://sketch.com -->
    <title>Group</title>
    <desc>Created with Sketch.</desc>
    <g id="Page-1" stroke="none" stroke-width="1" fill="none" fill-rule="evenodd">
        <g id="Design" transform="translate(-20.000000, -20.000000)" stroke="#979797">
            <g id="Group" transform="translate(20.000000, 20.000000)">
                <path d="M23.265625,35.5488281 C24.2324219,35.5488281 24.9355469,34.8632812 24.9355469,33.9316406 C24.9355469,33.4394531 24.7421875,33.0351562 24.4257812,32.71875 L21.9472656,30.2050781 L18.1679688,26.7949219 L21.1914062,26.9882812 L36.1328125,26.9882812 C37.1699219,26.9882812 37.8554688,26.2851562 37.8554688,25.2832031 C37.8554688,24.28125 37.1699219,23.578125 36.1328125,23.578125 L21.1914062,23.578125 L18.1855469,23.7714844 L21.9472656,20.3613281 L24.4257812,17.8300781 C24.7421875,17.5136719 24.9355469,17.109375 24.9355469,16.6171875 C24.9355469,15.6855469 24.2324219,15 23.265625,15 C22.84375,15 22.421875,15.1757812 22.0527344,15.5273438 L13.5449219,24.0175781 C13.2109375,24.3515625 13,24.8261719 13,25.2832031 C13,25.7402344 13.2109375,26.2148438 13.5449219,26.5488281 L22.0527344,35.0214844 C22.421875,35.390625 22.84375,35.5488281 23.265625,35.5488281 Z" id="â†" fill-rule="nonzero"></path>
                <circle id="Oval" cx="25" cy="25" r="24.5"></circle>
            </g>
        </g>
    </g>
</svg>