<?xml version="1.0" encoding="UTF-8"?>
<svg width="43px" height="44px" viewBox="0 0 43 44" version="1.1" xmlns="http://www.w3.org/2000/svg" xmlns:xlink="http://www.w3.org/1999/xlink">
    <!-- Generator: Sketch 63.1 (92452) - https://sketch.com -->
    <title>+</title>
    <desc>Created with Sketch.</desc>
    <g id="Page-1" stroke="none" stroke-width="1" fill="none" fill-rule="evenodd">
        <g id="Home" transform="translate(-85.000000, -609.000000)" fill-rule="nonzero" stroke="#979797">
            <g id="Beads" transform="translate(50.000000, 537.000000)">
                <path d="M56.4028436,115 C58.5402844,115 60.0559242,113.50411 60.0559242,111.317808 L60.0559242,97.2027397 L73.2303318,97.2027397 C75.4843602,97.2027397 77,95.7452055 77,93.6739726 C77,91.5643836 75.4843602,90.1068493 73.2303318,90.1068493 L60.0559242,90.1068493 L60.0559242,76.7205479 C60.0559242,74.5342466 58.5402844,73 56.4028436,73 C54.2654028,73 52.7886256,74.5342466 52.7886256,76.7205479 L52.7886256,90.1068493 L39.7696682,90.1068493 C37.5545024,90.1068493 36,91.5643836 36,93.6739726 C36,95.7452055 37.5545024,97.2027397 39.7696682,97.2027397 L52.7886256,97.2027397 L52.7886256,111.317808 C52.7886256,113.50411 54.3042654,115 56.4028436,115 Z" id="+"></path>
            </g>
        </g>
    </g>
</svg>