<?xml version="1.0" encoding="UTF-8"?>
<svg width="113px" height="116px" viewBox="0 0 113 116" version="1.1" xmlns="http://www.w3.org/2000/svg" xmlns:xlink="http://www.w3.org/1999/xlink">
    <!-- Generator: Sketch 63.1 (92452) - https://sketch.com -->
    <title>+</title>
    <desc>Created with Sketch.</desc>
    <g id="Page-1" stroke="none" stroke-width="1" fill="none" fill-rule="evenodd">
        <g id="Home" transform="translate(-144.000000, -276.000000)" fill-rule="nonzero" stroke="#979797">
            <g id="Projects" transform="translate(50.000000, 146.000000)">
                <path d="M150.236967,245 C156.023697,245 160.127014,240.939726 160.127014,235.005479 L160.127014,196.693151 L195.794313,196.693151 C201.896682,196.693151 206,192.736986 206,187.115068 C206,181.389041 201.896682,177.432877 195.794313,177.432877 L160.127014,177.432877 L160.127014,141.09863 C160.127014,135.164384 156.023697,131 150.236967,131 C144.450237,131 140.452133,135.164384 140.452133,141.09863 L140.452133,177.432877 L105.205687,177.432877 C99.2085308,177.432877 95,181.389041 95,187.115068 C95,192.736986 99.2085308,196.693151 105.205687,196.693151 L140.452133,196.693151 L140.452133,235.005479 C140.452133,240.939726 144.55545,245 150.236967,245 Z" id="+"></path>
            </g>
        </g>
    </g>
</svg>